<?xml version="1.0" encoding="UTF-8"?>
<svg width="51.643" height="51.641" version="1.1" viewBox="0 0 28.357 28.355" xmlns="http://www.w3.org/2000/svg">
	<path d="m27.891 14.144c0 7.5735-6.1397 13.713-13.712 13.713-7.5744 0-13.714-6.1392-13.714-13.713 0-7.5717 6.1393-13.711 13.714-13.711 7.5722 2e-5 13.712 6.1397 13.712 13.711z" fill="#00979d" stroke="#81c9cb" stroke-miterlimit="10" stroke-width=".932"/>
	<linearGradient id="a" x1="-16.3" x2="1354.9" y1="16.071" y2="16.071" gradientTransform="matrix(.020001 0 0 -.020001 .79202 14.478)" gradientUnits="userSpaceOnUse">
		<stop stop-color="#fff" stop-opacity="0" offset=".117"/>
		<stop stop-color="#c0d1d3" stop-opacity=".153" offset=".252"/>
		<stop stop-color="#91b3b7" stop-opacity=".306" offset=".387"/>
		<stop stop-color="#6d9fa3" stop-opacity=".457" offset=".52"/>
		<stop stop-color="#4d9195" stop-opacity=".604" offset=".65"/>
		<stop stop-color="#30888b" stop-opacity=".746" offset=".776"/>
		<stop stop-color="#148386" stop-opacity=".881" offset=".895"/>
		<stop stop-color="#008184" offset="1"/>
	</linearGradient>
	<linearGradient id="b" x1="-16.8" x2="1355.4" y1="16.071" y2="16.071" gradientTransform="matrix(.020001 0 0 -.020001 .79202 14.478)" gradientUnits="userSpaceOnUse">
		<stop stop-color="#fff" stop-opacity="0" offset="0"/>
		<stop stop-color="#c0d1d3" stop-opacity=".153" offset=".153"/>
		<stop stop-color="#91b3b7" stop-opacity=".306" offset=".306"/>
		<stop stop-color="#6d9fa3" stop-opacity=".457" offset=".457"/>
		<stop stop-color="#4d9195" stop-opacity=".604" offset=".604"/>
		<stop stop-color="#30888b" stop-opacity=".746" offset=".746"/>
		<stop stop-color="#148386" stop-opacity=".881" offset=".881"/>
		<stop stop-color="#008184" offset="1"/>
	</linearGradient>
	<path d="m27.891 14.156c0 7.5734-6.1397 13.713-13.712 13.713-7.5744 0-13.714-6.1397-13.714-13.713 0-7.5719 6.1393-13.712 13.714-13.712 7.5722 3.2002e-4 13.712 6.1397 13.712 13.712z" fill="url(#a)" opacity=".5" stroke="url(#b)" stroke-miterlimit="10" stroke-width=".020001"/>
	<g transform="matrix(.020001 0 0 .020001 .456 .42329)" fill="#fff">
		<path d="m947.96 931.2c-12.909 0-26.127-0.929-39.127-2.864-108.98-15.554-181.85-93.822-222.66-153.99-40.946 60.166-113.81 138.51-222.74 154.04a275.86 275.86 0 0 1-39.133 2.785c-67.753 0-131.36-25.217-179.2-71.003-48.299-46.165-74.951-108.11-74.951-174.17 0-66.14 26.651-128 75.021-174.25 47.797-45.793 111.45-70.936 179.23-70.936 12.918 0 26.067 0.928 39.023 2.783 108.93 15.535 181.79 93.813 222.74 153.99 40.825-60.177 113.69-138.43 222.66-153.99 13-1.863 26.148-2.783 39.066-2.783 67.753 0 131.4 25.208 179.2 70.936 48.345 46.249 74.937 108.11 74.937 174.25 0 66.057-26.524 128.01-74.868 174.17-47.881 45.785-111.43 71.026-179.19 71.026m-213.54-245.17c21.283 40.534 84.067 141.68 186.69 156.38 8.984 1.236 18.028 1.923 26.839 1.923 92.185 0 167.22-71.002 167.22-158.32s-75.023-158.32-167.29-158.32c-8.812 0-17.853 0.629-26.753 1.921-102.64 14.664-165.43 115.81-186.71 156.42m-310.03-158.32c-92.308 0-167.36 70.998-167.36 158.32 0 87.305 75.021 158.32 167.24 158.32 8.852 0 17.897-0.688 26.879-1.922 102.63-14.697 165.39-115.78 186.69-156.38-21.237-40.535-84.061-141.76-186.69-156.38-8.877-1.341-17.945-1.97-26.764-1.97"/>
		<path d="m354.37 662.05h152.62v49.181h-152.62zm662.11 0h-51.671v-51.747h-49.348v51.747h-51.648v49.181h51.648v51.737h49.348v-51.737h51.671z"/>
	</g>
</svg>
