<?xml version="1.0" encoding="UTF-8"?>
<svg width="43.748" height="50" fill="none" version="1.1" viewBox="0 0 3.4999 4" xmlns="http://www.w3.org/2000/svg">
	<g stroke-width=".125">
		<path d="m3.2561 0.81736-1.2625-0.74997a0.47448 0.47448 0 0 0-0.48748 0l-1.2625 0.74997c-0.15074 0.088997-0.24374 0.25462-0.24374 0.43348v1.4992c0 0.17874 0.093 0.34449 0.24374 0.43348l1.2625 0.74922c0.075 0.0445 0.15937 0.06725 0.24374 0.06725 0.08437 0 0.16799-0.02275 0.24374-0.06725l1.2625-0.74922a0.50373 0.50373 0 0 0 0.24374-0.43348v-1.4992c0-0.17887-0.093-0.34449-0.24374-0.43361z" fill="#fff"/>
		<path d="m3.2561 0.81736-1.2625-0.74997a0.47748 0.47748 0 0 0-0.24374-0.067247c-0.08437 0-0.16799 0.0225-0.24374 0.06712l-1.2625 0.74997c-0.15074 0.089124-0.24374 0.25474-0.24374 0.43361v1.4992c0 0.17874 0.093 0.34449 0.24374 0.43348l1.2625 0.74922c0.075 0.0445 0.15937 0.06725 0.24374 0.06725 0.08437 0 0.16799-0.02275 0.24374-0.06725l1.2625-0.74922a0.50373 0.50373 0 0 0 0.24374-0.43348v-1.4992c0-0.17887-0.093-0.34449-0.24374-0.43361zm-1.7054 3.0388-1.2625-0.74922c-0.12337-0.0735-0.19999-0.21012-0.19999-0.35699v-1.4991c0-0.14687 0.07662-0.28361 0.19999-0.35699l1.2625-0.74922a0.38999 0.38999 0 0 1 0.39848 0l1.2625 0.74922a0.41224 0.41224 0 0 1 0.19374 0.28899c-0.04225-0.089-0.136-0.114-0.24612-0.04925l-1.1945 0.73835c-0.14924 0.08662-0.25862 0.18499-0.25862 0.36399v1.4718c0 0.10787 0.043 0.17737 0.11012 0.19762-0.02187 4e-3 -0.04375 0.0063-0.06637 0.0063a0.39861 0.39861 0 0 1-0.19924-0.05537z" fill="#283037"/>
		<path d="m2.9256 2.8945-0.31474 0.18824c-0.0088 0.0047-0.015 0.01012-0.015 0.02037v0.082c0 0.01012 0.0071 0.014 0.015 0.0094l0.31949-0.19374c0.0086-0.0047 0.0094-0.01412 0.0094-0.02425v-0.07262c7.5e-4 -0.01012-0.0062-0.01412-0.01412-0.0094z" fill="#4da825"/>
		<path d="m2.2562 2.2023c0.01012-0.0054 0.01875 0.0016 0.01875 0.015l7.5e-4 0.1085c0.04537-0.018 0.08512-0.02263 0.12112-0.01487 0.0079 0.0024 0.011 0.0125 0.0079 0.025l-0.02425 0.09612a0.043748 0.043748 0 0 1-0.011 0.0195c-0.0024 0.0024-0.0039 0.0039-0.0062 0.0048-0.0031 0.0015-0.0063 0.0023-0.0094 0.0015-0.01638-0.0039-0.0555-0.0125-0.11637 0.01875-0.064 0.03287-0.08675 0.08825-0.086 0.12975 8.75e-4 0.04912 0.02587 0.06475 0.11337 0.06562 0.11637 0.0015 0.16712 0.05312 0.16787 0.17024 0.0016 0.11562-0.06 0.23912-0.15462 0.31561l0.0024 0.10787c0 0.01325-0.0086 0.02812-0.01875 0.03275l-0.06412 0.03675c-0.01012 0.0055-0.01875-7.5e-4 -0.01875-0.01412l-7.5e-4 -0.10625c-0.05475 0.02275-0.11012 0.02812-0.14524 0.01412-0.0071-0.0024-0.0094-0.0125-0.0071-0.0235l0.0235-0.0975a0.037999 0.037999 0 0 1 0.01162-0.02038c0.0025-0.0016 4e-3 -0.0031 0.0062-0.0047 4e-3 -0.0015 0.0071-0.0024 0.01025-7.5e-4 0.03825 0.0125 0.08675 7e-3 0.13362-0.01725 0.05925-0.03037 0.09912-0.09062 0.09837-0.15149-7.49e-4 -0.05475-0.0305-0.07737-0.10237-0.07812-0.09137 0-0.17737-0.018-0.17887-0.15312-7.5e-4 -0.111 0.057-0.22662 0.14849-0.29999l-8.75e-4 -0.10862c0-0.01325 0.0079-0.02812 0.01875-0.03362z" fill="#fff"/>
	</g>
</svg>
