<?xml version="1.0" encoding="UTF-8"?>
<svg width="120mm" height="120mm" version="1.1" viewBox="0 0 120 120" xmlns="http://www.w3.org/2000/svg" xmlns:xlink="http://www.w3.org/1999/xlink">
	<defs>
		<linearGradient id="a" x1="412.73" x2="734.18" y2="640" gradientTransform="matrix(.18787 0 0 .18787 43.553 157.72)" gradientUnits="userSpaceOnUse">
			<stop stop-color="#3e00c3" offset="0"/>
			<stop stop-color="#0051cf" offset="1"/>
		</linearGradient>
	</defs>
	<g transform="translate(-43.553 -157.72)">
		<rect x="43.553" y="157.72" width="120" height="120" fill="url(#a)" stroke-width="0"/>
		<g transform="translate(.2248 -1.3113)">
			<g>
				<path d="m151.83 189.69h-96.995v66.092c0 0.49114 0.03669 0.97025 0.10659 1.4328 0.0699 0.46252 0.17287 0.90849 0.30572 1.333 0.13284 0.42454 0.29544 0.82749 0.48428 1.2047 0.18884 0.3772 0.40405 0.7286 0.64193 1.0491 0.23788 0.32048 0.49837 0.60997 0.77834 0.86438 0.27998 0.25441 0.57941 0.47347 0.89453 0.65244s0.64615 0.31817 0.98946 0.41234c0.34331 0.0941 0.69894 0.1436 1.0635 0.1436h86.466c0.36456 0 0.72018-0.0494 1.0635-0.1436 0.34331-0.0941 0.67434-0.23337 0.98946-0.41234s0.61421-0.39803 0.89418-0.65244c0.27998-0.25441 0.54081-0.5439 0.77869-0.86438s0.45275-0.67188 0.64159-1.0491c0.18884-0.37719 0.35144-0.78014 0.48428-1.2047 0.13284-0.42455 0.23616-0.87052 0.30606-1.333 0.0699-0.46254 0.10659-0.94165 0.10659-1.4328z" fill="#241f31" stroke="#5e5c64" stroke-width=".22803"/>
				<g>
					<g>
						<rect x="63.069" y="202.3" width="29.413" height="3.8596" rx="2" ry="2" fill="#26a269"/>
						<rect x="95.516" y="202.3" width="11.777" height="3.8596" rx="2" ry="2" fill="#0a4"/>
						<rect x="110.33" y="202.3" width="18.411" height="3.8596" rx="2" ry="2" fill="#dc8add"/>
						<rect x="131.77" y="202.3" width="11.777" height="3.8596" rx="2" ry="2" fill="#e01b24"/>
					</g>
					<g>
						<rect x="63.147" y="213.33" width="13.208" height="3.8596" rx="2" ry="2" fill="#e01b24"/>
						<rect x="79.07" y="213.33" width="26.322" height="3.8596" rx="2" ry="2" fill="#a08"/>
						<rect x="108.11" y="213.33" width="16.435" height="3.8596" rx="2" ry="2" fill="#f5c211"/>
						<rect x="127.26" y="213.33" width="16.213" height="3.8596" rx="2" ry="2" fill="#613583"/>
					</g>
					<g>
						<rect x="63.108" y="224.35" width="17.306" height="3.8596" rx="2" ry="2" fill="#e66100"/>
						<rect x="83.295" y="224.35" width="30.314" height="3.8596" rx="2" ry="2" fill="#08a"/>
						<rect x="116.49" y="224.35" width="11.831" height="3.8596" rx="2" ry="2" fill="#26a269"/>
						<rect x="131.2" y="224.35" width="12.384" height="3.8596" rx="2" ry="2" fill="#e01b24"/>
					</g>
					<g>
						<rect x="63.147" y="235.38" width="8.3366" height="3.8596" rx="2" ry="2" fill="#e66100"/>
						<rect x="92.743" y="235.38" width="16.073" height="3.8596" rx="2" ry="2" fill="#e01b24"/>
						<rect x="74.644" y="235.38" width="14.939" height="3.8596" rx="2" ry="2" fill="#a08"/>
						<rect x="111.98" y="235.38" width="14.254" height="3.8596" rx="2" ry="2" fill="#613583"/>
						<rect x="129.39" y="235.38" width="14.236" height="3.8596" rx="2" ry="2" fill="#e66100"/>
					</g>
					<g>
						<rect x="63.029" y="246.41" width="19.137" height="3.8596" rx="2" ry="2" fill="#00a0ba"/>
						<rect x="84.457" y="246.41" width="12.103" height="3.8596" rx="2" ry="2" fill="#26a269"/>
						<rect x="139.39" y="246.41" width="4.1172" height="3.8596" rx="2" ry="2" fill="#f6f5f4"/>
						<rect x="98.849" y="246.41" width="38.253" height="3.8596" rx="2" ry="2" fill="#e5a50a"/>
					</g>
				</g>
			</g>
			<g>
				<path d="m60.095 175.19c-0.36456 0-0.72018 0.0494-1.0635 0.1436-0.34331 0.0941-0.67434 0.2329-0.98946 0.41188-0.31512 0.17897-0.61455 0.39803-0.89453 0.65244-0.27998 0.2544-0.54046 0.54436-0.77834 0.86484-0.23788 0.32048-0.4531 0.67142-0.64193 1.0486-0.18884 0.37719-0.35144 0.78059-0.48428 1.2051-0.13284 0.42455-0.23582 0.87052-0.30572 1.333-0.0699 0.46253-0.10659 0.94165-0.10659 1.4328v7.41h96.995v-7.41c0-0.49114-0.0367-0.97026-0.10659-1.4328-0.0699-0.46252-0.17322-0.90849-0.30606-1.333s-0.29544-0.82795-0.48428-1.2051c-0.18884-0.3772-0.40371-0.72814-0.64159-1.0486s-0.49871-0.61044-0.77869-0.86484c-0.27997-0.25441-0.57906-0.47347-0.89418-0.65244-0.31512-0.17898-0.64615-0.31771-0.98946-0.41188-0.34332-0.0941-0.69894-0.1436-1.0635-0.1436z" fill="#3d3846" stroke="#5e5c64" stroke-width=".22803"/>
				<g transform="matrix(.31815 0 0 .2785 35.803 160.33)" stroke-width=".94992">
					<ellipse cx="272.31" cy="79.4" rx="4.5588" ry="5" fill="#00ff2f"/>
					<ellipse cx="302.06" cy="79.4" rx="4.5588" ry="5" fill="#f8ff00"/>
					<ellipse cx="331.8" cy="79.4" rx="4.5588" ry="5" fill="#ff1d00"/>
				</g>
				<text transform="scale(1.0001 .9999)" x="64.812462" y="183.51051" fill="#e6e6e6" font-family="Sans" font-size="4.0465px" stroke-width=".265" style="font-variant-caps:normal;font-variant-east-asian:normal;font-variant-ligatures:normal;font-variant-numeric:normal" xml:space="preserve"><tspan x="64.812462" y="183.51051" font-family="Sans" font-size="4.0465px" stroke-width=".265" style="font-variant-caps:normal;font-variant-east-asian:normal;font-variant-ligatures:normal;font-variant-numeric:normal">index.js</tspan></text>
			</g>
		</g>
	</g>
</svg>
