<?xml version="1.0" encoding="UTF-8"?>
<svg enable-background="new 0 0 306 344.35" version="1.1" viewBox="0 0 44.432 50" xmlns="http://www.w3.org/2000/svg">
	<g stroke-width=".1452">
		<path d="m43.866 37.5c0.34863-0.60389 0.56527-1.2843 0.56527-1.8953v-21.209c0-0.61101-0.21635-1.2913-0.56512-1.8952l-21.651 12.5z" fill="#00599c"/>
		<path d="m24.14 49.542 18.368-10.605c0.52911-0.3055 1.01-0.83302 1.3586-1.4371l-21.651-12.5-21.651 12.5c0.34863 0.60389 0.82968 1.1316 1.3587 1.4369l18.368 10.605c1.0581 0.61101 2.7898 0.61101 3.8478 0z" fill="#004482"/>
		<path d="m43.867 12.5c-0.34877-0.60404-0.82983-1.1316-1.3588-1.4371l-18.368-10.605c-1.0581-0.61101-2.7898-0.61101-3.8478 0l-18.368 10.605c-1.0582 0.61086-1.9239 2.1105-1.9239 3.3324v21.209c0 0.61101 0.2165 1.2914 0.56527 1.8953l21.651-12.5z" fill="#659ad2"/>
	</g>
	<g transform="scale(.1452)">
		<path d="m153 274.18c-56.243 0-102-45.757-102-102s45.757-102 102-102c36.292 0 70.139 19.53 88.331 50.968l-44.143 25.544c-9.105-15.736-26.038-25.512-44.188-25.512-28.122 0-51 22.878-51 51 0 28.121 22.878 51 51 51 18.152 0 35.085-9.776 44.191-25.515l44.143 25.543c-18.192 31.441-52.04 50.972-88.334 50.972z" fill="#fff"/>
	</g>
	<g transform="scale(.1452)">
		<polygon points="232.33 155.18 232.33 166.51 221 166.51 221 177.84 232.33 177.84 232.33 189.18 243.67 189.18 243.67 177.84 255 177.84 255 166.51 243.67 166.51 243.67 155.18" fill="#fff"/>
	</g>
	<g transform="scale(.1452)">
		<polygon points="274.83 155.18 274.83 166.51 263.5 166.51 263.5 177.84 274.83 177.84 274.83 189.18 286.17 189.18 286.17 177.84 297.5 177.84 297.5 166.51 286.17 166.51 286.17 155.18" fill="#fff"/>
	</g>
</svg>
