<?xml version="1.0" encoding="UTF-8"?>
<svg clip-rule="evenodd" fill-rule="evenodd" image-rendering="optimizeQuality" shape-rendering="geometricPrecision" text-rendering="geometricPrecision" version="1.1" viewBox="0 0 50 50" xmlns="http://www.w3.org/2000/svg">
	<path d="m10.254 0h29.492c5.657 0.015137 10.239 4.5969 10.254 10.254v29.493c-0.015137 5.6568-4.5969 10.239-10.254 10.254l-29.493 1.95e-4c-5.6568-0.015234-10.239-4.5971-10.254-10.254l-1.9531e-4 -29.492c0.015234-5.657 4.5971-10.239 10.254-10.254z" fill="#5865f2" stroke-width=".097656"/>
	<g transform="scale(.097656)" data-name="图层 2">
		<g data-name="Discord Logos">
			<path d="m368.9 153.38a269.51 269.51 0 0 0-67.118-20.637 186.88 186.88 0 0 0-8.57 17.475 250.34 250.34 0 0 0-37.247-2.8c-12.447 0-24.955 0.946-37.25 2.776-2.511-5.927-5.427-11.804-8.592-17.454a271.73 271.73 0 0 0-67.133 20.681c-42.479 62.841-53.991 124.11-48.235 184.51a270.62 270.62 0 0 0 82.308 41.312c6.637-8.959 12.582-18.497 17.63-28.423a173.81 173.81 0 0 1-27.772-13.253c2.328-1.688 4.605-3.427 6.805-5.117 25.726 12.083 53.836 18.385 82.277 18.385 28.442 0 56.551-6.302 82.279-18.387 2.226 1.817 4.503 3.557 6.805 5.117a175 175 0 0 1-27.823 13.289 197.85 197.85 0 0 0 17.631 28.4 269.51 269.51 0 0 0 82.363-41.305l-7e-3 7e-3c6.754-70.045-11.538-130.75-48.351-184.58zm-166.93 147.41c-16.04 0-29.292-14.557-29.292-32.465s12.791-32.592 29.241-32.592 29.599 14.684 29.318 32.592c-0.282 17.908-12.919 32.465-29.267 32.465zm108.06 0c-16.066 0-29.267-14.557-29.267-32.465s12.791-32.592 29.267-32.592c16.475 0 29.522 14.684 29.241 32.592s-12.894 32.465-29.241 32.465z" fill="#fff" fill-rule="nonzero" data-name="Discord Logo - Large - White"/>
		</g>
	</g>
</svg>
