<?xml version="1.0" encoding="UTF-8"?>
<svg version="1.1" viewBox="0 0 33.333 50" xmlns="http://www.w3.org/2000/svg">
	<style type="text/css">
	.st0{fill:#1ABCFE;}
	.st1{fill:#F24E1E;}
	.st2{fill:#FF7262;}
	.st3{fill:#A259FF;}
	.st4{fill:#0ACF83;}
</style>
	<g transform="scale(.4069)">
		<path class="st4" d="m20.48 122.88c11.3 0 20.48-9.17 20.48-20.48v-20.48h-20.48c-11.3 0-20.48 9.17-20.48 20.48s9.18 20.48 20.48 20.48z"/>
		<path class="st3" d="m0 61.44c0-11.3 9.18-20.48 20.48-20.48h20.48v40.96h-20.48c-11.3 0-20.48-9.17-20.48-20.48z"/>
		<path class="st1" d="M 0,20.48 C 0,9.18 9.18,0 20.48,0 H 40.96 V 40.96 H 20.48 C 9.18,40.96 0,31.79 0,20.48 Z"/>
		<path class="st2" d="m40.96 0h20.48c11.3 0 20.48 9.18 20.48 20.48 0 11.31-9.17 20.48-20.48 20.48h-20.48z"/>
		<path class="st0" d="m81.92 61.44c0 11.31-9.17 20.48-20.48 20.48s-20.48-9.17-20.48-20.48c0-11.3 9.17-20.48 20.48-20.48s20.48 9.18 20.48 20.48z"/>
	</g>
</svg>
