<?xml version="1.0" encoding="UTF-8"?>
<svg version="1.1" viewBox="0 0 40.377 50" xmlns="http://www.w3.org/2000/svg" xmlns:xlink="http://www.w3.org/1999/xlink">
	<g transform="matrix(.048137 0 0 .048137 -5.8053 -.99644)">
		<defs>
			<path id="A" d="m959.4 500-279.6 279.7 279.6 279.7h-319.5l-279.7-279.7 279.7-279.7zm-319.5-479.3-519.3 519.3 159.8 159.8 679-679.1z"/>
		</defs>
		<clipPath id="B">
			<use xlink:href="#A"/>
		</clipPath>
		<g clip-path="url(#B)">
			<path d="M 360.3,779.7 520,939.5 959.4,500 H 639.9 Z" fill="#39cefd"/>
		</g>
		<defs>
			<path id="C" d="m959.4 500-279.6 279.7 279.6 279.7h-319.5l-279.7-279.7 279.7-279.7zm-319.5-479.3-519.3 519.3 159.8 159.8 679-679.1z"/>
		</defs>
		<clipPath id="D">
			<use xlink:href="#C"/>
		</clipPath>
		<path d="m639.9 20.7h319.5l-679 679.1-159.8-159.8z" clip-path="url(#D)" fill="#39cefd"/>
		<defs>
			<path id="E" d="m959.4 500-279.6 279.7 279.6 279.7h-319.5l-279.7-279.7 279.7-279.7zm-319.5-479.3-519.3 519.3 159.8 159.8 679-679.1z"/>
		</defs>
		<clipPath id="F">
			<use xlink:href="#E"/>
		</clipPath>
		<path d="m520 939.5 119.9 119.8h319.5l-279.6-279.6z" clip-path="url(#F)" fill="#03569b"/>
		<defs>
			<path id="G" d="m959.4 500-279.6 279.7 279.6 279.7h-319.5l-279.7-279.7 279.7-279.7zm-319.5-479.3-519.3 519.3 159.8 159.8 679-679.1z"/>
		</defs>
		<clipPath id="H">
			<use xlink:href="#G"/>
		</clipPath>
		<linearGradient id="I" x1="566.64" x2="685.65" y1="970.34" y2="851.32" gradientUnits="userSpaceOnUse">
			<stop stop-color="#1a237e" stop-opacity=".4" offset="0"/>
			<stop stop-color="#1a237e" stop-opacity="0" offset="1"/>
		</linearGradient>
		<path d="m757 857.4-77.2-77.7-159.8 159.8z" clip-path="url(#H)" fill="url(#I)"/>
		<defs>
			<path id="J" d="m959.4 500-279.6 279.7 279.6 279.7h-319.5l-279.7-279.7 279.7-279.7zm-319.5-479.3-519.3 519.3 159.8 159.8 679-679.1z"/>
		</defs>
		<clipPath id="K">
			<use xlink:href="#J"/>
		</clipPath>
		<g clip-path="url(#K)">
			<path d="m360.28 779.64 159.8-159.8 159.81 159.8-159.81 159.8z" fill="#16b9fd"/>
		</g>
		<radialGradient id="L" cx="7824.7" cy="-2856" r="5082.9" gradientTransform="matrix(.25 0 0 -.25 -1812 -622.5)" gradientUnits="userSpaceOnUse">
			<stop stop-color="#fff" stop-opacity=".1" offset="0"/>
			<stop stop-color="#fff" stop-opacity="0" offset="1"/>
		</radialGradient>
		<path d="m959.4 500-279.6 279.7 279.6 279.7h-319.5l-279.7-279.7 279.7-279.7zm-319.5-479.3-519.3 519.3 159.8 159.8 679-679.1z" fill="url(#L)"/>
	</g>
</svg>
