<?xml version="1.0" encoding="UTF-8"?>
<svg version="1.1" viewBox="0 0 50.001 50" xmlns="http://www.w3.org/2000/svg">
	<path d="m49.058 22.773-21.831-21.83c-1.257-1.2575-3.2959-1.2575-4.554 0l-4.5328 4.5339 5.75 5.75c1.3364-0.45164 2.8688-0.14855 3.9337 0.91689 1.0714 1.072 1.3718 2.6174 0.90873 3.9587l5.5427 5.5422c1.3413-0.46253 2.8878-0.16324 3.9587 0.90927 1.4964 1.4964 1.4964 3.9211 0 5.4186-1.4975 1.497-3.9222 1.497-5.4203 0-1.1253-1.1264-1.4039-2.7806-0.83309-4.1671l-5.1694-5.1689v13.602c0.36458 0.18066 0.70903 0.42117 1.0127 0.72481 1.4964 1.4964 1.4964 3.9211 0 5.4192-1.4964 1.4959-3.9228 1.4959-5.4181 0-1.4964-1.4986-1.4964-3.9233 0-5.4192 0.37002-0.36948 0.79827-0.64917 1.2554-0.83636v-13.729c-0.45709-0.18719-0.88424-0.46416-1.2554-0.83636-1.1335-1.1329-1.4061-2.7969-0.82493-4.1889l-5.6684-5.6695-14.97 14.968c-1.2575 1.2586-1.2575 3.2975 0 4.5551l21.832 21.83c1.257 1.2575 3.2954 1.2575 4.554 0l21.729-21.729c1.2575-1.2575 1.2575-3.2975 0-4.5551z" fill="#f05133" stroke-width=".54415"/>
</svg>
