<?xml version="1.0" encoding="UTF-8"?>
<svg width="166.06mm" height="50mm" version="1.1" viewBox="0 0 166.06 50" xmlns="http://www.w3.org/2000/svg">
	<g transform="matrix(1.6606 0 0 1.6606 -.0002989 .00017104)">
		<path d="m3.5662 0c0.38186 0.68833 0.78011 1.2783 1.1964 1.7864 0.40481-0.021305 1.8552 0.74733 2.1502 0.85714 0.83255 0.46217 1.7421 1.0325 2.5681 1.5832 0.82764 0.5523 1.5733 1.0849 2.0847 1.475 0.25567 0.19667 0.45561 0.35728 0.57689 0.46872a0.79158 0.79158 0 0 1 0.12783 0.13439 0.13111 0.13111 0 0 1 0.01638 0.034415 0.098333 0.098333 0 0 1-0.0066 0.077028 0.093417 0.093417 0 0 1-0.06555 0.049163 0.12619 0.12619 0 0 1-0.04589 0c-0.09342 0-0.3327-0.26714-0.81453-0.68014a38.471 38.471 0 0 0-4.5216-2.9942c-0.826-0.45889-1.5668-0.88828-2.0716-1.0046a3.8055 3.8055 0 0 0-0.59-0.040972 4.4348 4.4348 0 0 0-1.2914 0.21797c0.80961 0.6785 1.4914 1.1734 2.0978 1.5553-0.93417-0.29828-1.9372-0.34417-3.1172 0.21797 0.86206 0.53919 1.5848 0.92925 2.2191 1.221 1.8077 0.25567 3.7006 1.1407 5.2838 2.1453 0.79158 0.50314 1.4816 1.0079 1.9978 1.4209 0.2573 0.20486 0.47528 0.38842 0.63917 0.53756 0.16061 0.14914 0.28517 0.25239 0.32286 0.34417 0.04916 0.11964-0.03114 0.17044-0.13766 0.095055-0.05245-0.036049-0.14422-0.16717-0.30156-0.31303a12.046 12.046 0 0 0-0.62933-0.53592 22.797 22.797 0 0 0-1.9814-1.4045c-1.4635-0.92106-3.658-1.6602-5.2002-2.2895a4.0251 4.0251 0 0 0-3.1237 0.63917c0.73586 0.32778 1.3717 0.57197 1.9372 0.75881 1.3308 0 3.1008 0.59819 4.8101 1.5111 1.7077 0.91122 3.3433 1.9896 4.1349 2.9074 0.10817 0.12619-0.02622 0.2065-0.12128 0.11472-0.85222-0.81125-2.3977-1.9732-4.0939-2.8779-1.0472-0.55231-3.5285-1.6553-4.7298-1.6553l0.00655 0.00329c-0.92924 0.032777-1.8519 0.31958-2.7517 1.1734 0.78175 0.19339 1.4504 0.32122 2.0388 0.40808-0.72111 0.14422-1.4258 0.49167-2.1125 1.1833 0.531 0.11472 1.0096 0.19994 1.4455 0.2655a4.1513 4.1513 0 0 0-1.5127 1.2783c0.61131 0.04917 1.1521 0.06884 1.6389 0.07211-0.59 0.27206-1.1407 0.70472-1.6323 1.3931 0.87353 0.04425 1.6061 0.04097 2.2354 0.0049-0.69161 0.28189-1.3308 0.76044-1.8765 1.5864 1.0849 0.01638 1.947-0.03606 2.6681-0.12456l-0.00983 0.0033c1.6225-0.11964 3.7645 0.20814 4.8544 1.3881 0.085222 0.09342-0.039333 0.19339-0.118 0.12128-1.062-0.95053-2.4469-1.3553-4.7364-1.5094h-0.00328c-0.88991 0.24419-1.7143 0.73094-2.3928 1.7602 0.87844 0.01311 1.6094-0.0213 2.2387-0.08194-0.76864 0.42119-1.4307 1.0554-1.8667 2.1404 0.79158-0.15078 1.4553-0.31139 2.0273-0.47856-0.59492 0.4343-1.0948 1.0423-1.4307 1.9568 0.531-0.118 1.003-0.23928 1.4275-0.36219a4.1284 4.1284 0 0 0-0.84075 1.7946c0.57689-0.21306 1.0735-0.41628 1.5176-0.61786-0.42119 0.49167-0.74242 1.1161-0.90139 1.9503 0.81125-0.32614 1.4734-0.63589 2.0289-0.93089-0.50806 0.54575-0.88992 1.2456-1.0407 2.2223a19.365 19.365 0 0 0 2.3633-1.2193c-0.70964 0.59328-1.2521 1.3816-1.4406 2.6009 1.2914-0.57033 2.1945-1.0866 2.8959-1.5651-0.30156 0.60967-0.46217 1.3209-0.38514 2.2092 1.2488-0.95711 2.0371-1.7307 2.6255-2.4141-0.039333 0.44086-0.00494 0.91778 0.12619 1.4488 0.89483-1.5389 1.7847-1.9863 2.7042-2.5009-1.4668 0.73914-1.2488 1.2947-1.2488 1.9404 1.1194-1.18 2.6796-2.4288 3.1581-3.2122-0.63917 0.95875-0.89647 1.8683-1.0653 2.6714-3.2663 1.7274-5.2559 2.1781-7.4864 2.8681 0.86533 0.31794 1.7913 0.62769 1.4078 1.0686l-1.0227 1.0194c0.65392-0.20322 1.3193-0.49167 1.8978-0.0967-0.057361 0.53592-0.73258 0.80633-1.3111 1.1194 1.0178-0.36711 1.239-0.28189 1.5078-0.19667 0.13275 0.64408-0.33269 0.98825-0.63589 1.4127 2.5649-1.9503 5.9098-3.4908 8.2666-4.1333 3.3138-1.1161 7.5881-2.2764 8.75-5.1051l1.1669-4.6659-0.0066 0.0066c-0.18192-0.05572-0.40317-0.10325-0.57361-0.21797a1.0669 1.0669 0 0 1-0.38514-0.48675c-0.413 0.10653-0.72111 0.04916-0.91778-0.14422-0.19175-0.19175-0.27369-0.48511-0.33269-0.80469-0.33269 0.06719-0.59328 0.02622-0.76536-0.12619-0.19011-0.16553-0.27861-0.42611-0.3245-0.72767l-0.01311-0.06392 0.06064-0.02459a1.3799 1.3799 0 0 0 0.49494-0.31794 0.42119 0.42119 0 0 0 0.11472-0.36875l-0.0098-0.06064 0.04916-0.02622c0.26714-0.15242 0.56542-0.27697 0.70144-0.45889a0.44906 0.44906 0 0 0 0.08688-0.34421 1.4422 1.4422 0 0 0-0.25403-0.58508l-0.04425-0.06556 0.06555-0.04426c0.19339-0.1475 0.39989-0.29336 0.50478-0.42611 0.05245-0.06555 0.07867-0.12456 0.07703-0.18028 0-0.05408-0.02459-0.11472-0.10489-0.19175l-0.16061-0.15406 0.22125 0.0098c0.34908 0.01638 0.64736-0.01148 0.88172-0.08686a0.826 0.826 0 0 0 0.44904-0.32283c-0.011475-0.054089-0.03278-0.10325-0.03278-0.16061a0.79322 0.79322 0 0 1 1.5848 0c0 0.072113-0.02459 0.13767-0.04261 0.20486 0.29008 0.02295 0.56869 0.01638 0.83092-0.098333l0.0033 0.00165 0.05736-0.021305c0.38678-0.13931 0.54739 0.073751 1.18-0.74733-2.7697-3.5892-6.8129-1.0407-8.1567 2.6583-0.34417 0.944-2.3026 0.94728-2.8697 0-2.2453-4.8347-9.0631-9.9448-14.865-11.83zm1.4094 3.5154c1.4848 0.48019 3.1352 1.2816 4.5397 2.1764 0.70472 0.44742 1.3324 0.88992 1.8257 1.2767 0.49331 0.38678 0.92761 0.77519 1.0161 0.94236 0.0885 0.16717 0 0.22944-0.13439 0.098333-0.13275-0.12783-0.49658-0.52444-0.98333-0.9063a23.387 23.387 0 0 0-1.8126-1.2734c-1.2701-0.80306-3.2483-1.5701-4.4512-2.3141zm-2.7861 4.425c1.829 0.022943 3.8514 0.73258 5.6279 1.634a18.847 18.847 0 0 1 2.2862 1.3603c0.60967 0.43103 1.1013 0.85878 1.2029 1.0768 0.09997 0.21961-0.03278 0.21306-0.14258 0.09014a7.2127 7.2127 0 0 0-1.1538-1.0259 18.798 18.798 0 0 0-2.2699-1.3537c-1.5782-0.78994-3.7432-1.5176-5.5509-1.7798zm24.446 1.2652a0.62442 0.62442 0 1 0 0 1.2488 0.62442 0.62442 0 0 0 0-1.2488zm-23.849 0.077027c1.3472 0.118 2.8189 0.60311 4.1529 1.2292 1.7798 0.83419 3.3351 1.8978 3.9891 2.732 0.05736 0.07375-0.02294 0.21469-0.13111 0.10161-0.70144-0.72111-2.1666-1.8536-3.9284-2.6796-1.4963-0.68997-3.7399-1.4258-5.3461-1.2783 0.41136-0.049166 0.81453-0.14422 1.2636-0.10489zm26.778 0.016382c-0.59983 0.77847-0.86861 0.69325-1.1521 0.76045 0.15406 0.70472 0.57361 0.96039 0.95875 1.2619l-0.09833 0.01967c3.794-0.73258 6.8604-0.46872 10.061-0.38678zm-0.29172 2.0421h-0.0033l-0.0066 0.02622zm-1.0243-1.2406a1.947 1.947 0 0 1-0.92269 0.09669 0.78175 0.78175 0 0 1-0.68833 0.42611 0.79158 0.79158 0 0 1-0.71292-0.45561 0.99808 0.99808 0 0 1-0.44906 0.30811 2.6009 2.6009 0 0 1-0.80797 0.09014c0.03278 0.05736 0.0885 0.11144 0.09014 0.17044a0.44742 0.44742 0 0 1-0.11308 0.28516c-0.11964 0.15078-0.30975 0.27861-0.48347 0.40644 0.14258 0.23108 0.22453 0.42611 0.24419 0.59328a0.63917 0.63917 0 0 1-0.11472 0.46544c-0.17372 0.22944-0.472 0.34417-0.71947 0.48019a0.61294 0.61294 0 0 1-0.1475 0.43922 1.4586 1.4586 0 0 1-0.48675 0.3245c0.04425 0.25567 0.12128 0.4638 0.25239 0.58017 0.14094 0.12456 0.34581 0.1688 0.69653 0.07703l0.09014-0.02295 0.01638 0.09014c0.05409 0.33925 0.14422 0.63097 0.30647 0.79158 0.16389 0.16225 0.39989 0.22125 0.82436 0.09014l0.0803-0.02458 0.02622 0.07867a0.85222 0.85222 0 0 0 0.34253 0.46217c0.14258 0.09833 0.4048 0.18356 0.58672 0.24092 1.3078-1.4242 2.4993-2.9041 3.0877-4.6872-0.36874-0.29009-0.82927-0.55395-0.99808-1.3062zm-26.599 0.63261c1.9093-0.13111 3.7416 0.32122 5.2477 1.0259 1.5078 0.70472 2.7173 1.5389 3.2352 2.142 0.12292 0.14258-0.03114 0.19667-0.118 0.118a13.418 13.418 0 0 0-3.1909-2.1142c-1.4816-0.6785-3.5941-1.0554-5.174-1.1718zm1.416 1.3144c0.99972 0.03278 2.0322 0.25403 2.9598 0.57689 1.239 0.42939 2.3289 1.0063 2.8631 1.6061 0.073751 0.08194-0.011475 0.20814-0.12128 0.11308-0.57197-0.49822-1.575-1.1357-2.7959-1.5586-0.94072-0.31958-2.6435-0.60475-3.717-0.65064 0.32286-0.03606 0.47856-0.09833 0.81125-0.08686zm1.7208 2.9303c0.69325 0.05572 1.4521 0.21797 2.1977 0.66703 0.070475 0.04262 0.080306 0.22289-0.080305 0.1475-1.4029-0.65883-2.1732-0.80306-4.0267-0.50806 0.63261-0.20978 1.2128-0.36219 1.9077-0.30647zm-0.065556 1.2914c0.65556-0.05736 1.2849-0.0033 2.1256 0.33433 0.072112 0.0295 0.13111 0.2065-0.054082 0.15406-1.4045-0.39825-1.9126-0.53756-3.7481 0.17044a3.0156 3.0156 0 0 1 1.6766-0.65883zm2.106 1.1259c0.51953-0.03769 1.0407-0.04261 1.5307 0.0098 0.085222 0.0098 0.090139 0.17208-0.00984 0.16717a12.898 12.898 0 0 0-3.0106 0.18847c-0.39825 0.07539-0.69325 0.07047-2.3026 0.75061 0.47036-0.38186 1.3013-0.74078 2.2699-0.91778a14.602 14.602 0 0 1 1.5242-0.19667zm2.0978 0.80306c0.16225 0.0049 0.10161 0.17044 0.00983 0.16881-1.1931-0.01638-2.1371 0.21633-3.0729 0.48347a16.028 16.028 0 0 0-2.1601 0.86042c0.46381-0.37694 1.1685-0.74897 2.1158-1.0194 0.94892-0.27206 2.0453-0.53428 3.1073-0.49494zm0.86533 0.65228c0.058999-0.0082 0.17208 0.13767 0.029496 0.16389-1.1964 0.22453-2.0388 0.43758-2.9402 0.74406-0.354 0.12128-0.95055 0.33925-2.0371 0.96203 0.42611-0.44086 1.0751-0.80633 1.988-1.1144a17.323 17.323 0 0 1 2.9598-0.75389zm0.5097 0.83092c0.12292-0.01967 0.15897 0.14258 0.03278 0.16717-1.9945 0.39497-2.8844 0.91122-4.1628 1.8749 0.826-0.85714 2.1256-1.7225 4.13-2.0421zm0.97514 0.73422c0.14258-0.02131 0.18028 0.14258 0.03442 0.16389-1.4291 0.21306-2.4206 0.9063-3.6957 2.1797 0.48347-0.80797 1.6454-2.0322 3.6613-2.3436zm0.60967 0.63917c0.07539-0.0098 0.18683 0.11964 0.03769 0.16389a4.3168 4.3168 0 0 0-1.0964 0.49167c-0.29828 0.19339-0.49167 0.32778-0.97842 0.83092 0.18192-0.40153 0.48511-0.71128 0.88828-0.96694 0.40481-0.25731 0.8342-0.48019 1.1472-0.51953zm80.492-7.5602 3.2337-4.7207c0.49567-0.75531 1.2982-1.5106 3.3989-1.5342v-0.70811h-5.6176v0.70811c0.94414 0.023606 1.4634 0.54288 1.4634 1.0858 0 0.23604-0.0472 0.28324-0.21243 0.54288l-2.6908 3.9654-3.0213-4.5319c-0.0472-0.070811-0.16522-0.25964-0.16522-0.35405 0-0.28324 0.51927-0.6845 1.5106-0.70811v-0.70811c-0.80252 0.070811-2.5256 0.070811-3.4225 0.070811-0.73171 0-2.1951-0.023607-3.0685-0.070811v0.70811h0.44848c1.2982 0 1.7467 0.16522 2.1951 0.82612l4.3195 6.5382-3.8474 5.6885c-0.33045 0.47207-1.0386 1.5578-3.3989 1.5578v0.73171h5.6176v-0.73171c-1.0858-0.0236-1.487-0.6609-1.487-1.0858 0-0.21243 0.07077-0.30684 0.23603-0.56648l3.3281-4.9331 3.7294 5.6176c0.0472 0.09442 0.11801 0.18883 0.11801 0.25964 0 0.28324-0.51927 0.6845-1.5342 0.70811v0.73171c0.82613-0.07082 2.5492-0.07082 3.4225-0.07082 0.99135 0 2.0771 0.0236 3.0685 0.07082v-0.73171h-0.44846c-1.2274 0-1.7231-0.11802-2.2187-0.84973l-4.9567-7.5059zm-7.1047 8.3321h-0.59008c-0.59008 3.6113-1.133 5.3344-5.1692 5.3344h-3.1157c-1.1094 0-1.1566-0.16522-1.1566-0.94414v-6.2785h2.1007c2.2896 0 2.5492 0.75531 2.5492 2.7616h0.59008v-6.2313h-0.59008c0 2.0063-0.25964 2.738-2.5492 2.738h-2.1007v-5.6412c0-0.77892 0.0472-0.94414 1.1566-0.94414h3.0213c3.6113 0 4.225 1.2982 4.6027 4.5791h0.59008l-0.6609-5.2872h-13.218v0.70811h0.54288c1.8175 0 1.8647 0.25964 1.8647 1.1094v12.321c0 0.84973-0.04717 1.1094-1.8647 1.1094h-0.54288v0.73171h13.548zm-12.651-15.153h-14.375l-0.42486 5.2872h0.56648c0.33045-3.8002 0.6845-4.5791 4.2486-4.5791 0.42486 0 1.0386 0 1.2746 0.047205 0.49568 0.094415 0.49568 0.35405 0.49568 0.89693v12.392c0 0.80252 0 1.133-2.4784 1.133h-0.94414v0.73171c0.96774-0.07082 3.3517-0.07082 4.4375-0.07082s3.5169 0 4.4847 0.07082v-0.73171h-0.94414c-2.4784 0-2.4784-0.33045-2.4784-1.133v-12.392c0-0.47207 0-0.80252 0.42486-0.89693 0.25964-0.047205 0.89694-0.047205 1.3454-0.047205 3.5405 0 3.8946 0.77892 4.225 4.5791h0.59009s-0.44846-5.2872-0.44846-5.2872zm-18.906-0.16522c-0.09442-0.28324-0.14162-0.37766-0.44847-0.37766s-0.37766 0.094415-0.47207 0.37766l-3.8002 9.6302c-0.16523 0.40126-0.44847 1.133-1.9119 1.133v0.59009h3.6585v-0.59009c-0.73171 0-1.1802-0.33045-1.1802-0.80252 0-0.11802 0.0236-0.16522 0.07082-0.33045l0.80252-2.0299h4.6735l0.94414 2.4076c0.0472 0.09442 0.09442 0.21243 0.09442 0.28324 0 0.47207-0.89693 0.47207-1.3454 0.47207v0.59009h4.6499v-0.59009h-0.33046c-1.1094 0-1.2274-0.16523-1.3926-0.6373l-4.0126-10.126zm-0.94414 1.6759 2.1007 5.3344h-4.2014zm1.3454 8.3321h-0.59009c-0.23603 2.4076-0.56648 5.3344-4.7207 5.3344h-1.9119c-1.1094 0-1.1566-0.16522-1.1566-0.94414v-12.533c0-0.80252 0-1.133 2.2187-1.133h0.77892v-0.70811c-0.84973 0.070811-2.974 0.070811-3.9418 0.070811-0.92054 0-2.7616 0-3.5641-0.070811v0.70811h0.54288c1.8175 0 1.8647 0.25964 1.8647 1.1094v12.392c0 0.84973-0.0472 1.1094-1.8647 1.1094h-0.54288v0.73171h12.25z" stroke-width="0"/>
	</g>
</svg>
