<?xml version="1.0" encoding="UTF-8"?>
<svg version="1.1" viewBox="0 0 50 50" xmlns="http://www.w3.org/2000/svg">
	<title>markdown</title>
	<g>
		<rect width="50" height="50" fill="#249fe9" stroke-width="1.3744"/>
		<path d="m43.163 38.063h-36.326a3.0647 3.0647 0 0 1-3.0647-3.0647v-19.997a3.0647 3.0647 0 0 1 3.0647-3.0647h36.326a3.0647 3.0647 0 0 1 3.0647 3.0647v20a3.0647 3.0647 0 0 1-3.0647 3.062zm-36.326-24.086a1.0222 1.0222 0 0 0-1.024 1.024v20a1.0222 1.0222 0 0 0 1.024 1.0204h36.326a1.0222 1.0222 0 0 0 1.0213-1.0204v-20a1.0222 1.0222 0 0 0-1.0213-1.024z" fill="#fff"/>
		<path d="m9.1811 31.94v-13.881h4.0824l4.0824 5.1028 4.0824-5.101h4.0824v13.881h-4.0824v-7.962l-4.0824 5.1028-4.0824-5.1028v7.9602zm25.515 0-6.124-6.7352h4.0824v-7.1444h4.0824v7.1444h4.0824z" fill="#fff"/>
	</g>
</svg>
