<?xml version="1.0" encoding="UTF-8" standalone="no"?>
<svg
   width="64"
   height="64"
   viewBox="0 0 16.933332 16.933334"
   version="1.1"
   id="svg20"
   inkscape:export-filename="logo1.png"
   inkscape:export-xdpi="600.00006"
   inkscape:export-ydpi="600.00006"
   inkscape:version="1.3 (0e150ed6c4, 2023-07-21)"
   sodipodi:docname="logo1.svg"
   xmlns:inkscape="http://www.inkscape.org/namespaces/inkscape"
   xmlns:sodipodi="http://sodipodi.sourceforge.net/DTD/sodipodi-0.dtd"
   xmlns="http://www.w3.org/2000/svg"
   xmlns:svg="http://www.w3.org/2000/svg">
  <defs
     id="defs20" />
  <sodipodi:namedview
     id="namedview20"
     inkscape:zoom="8.6952037"
     inkscape:cx="14.433244"
     inkscape:cy="36.169365"
     inkscape:window-width="1920"
     inkscape:window-height="1001"
     inkscape:window-x="-9"
     inkscape:window-y="-9"
     inkscape:window-maximized="1"
     inkscape:current-layer="svg20"
     pagecolor="#ffffff"
     bordercolor="#000000"
     borderopacity="0.25"
     inkscape:showpageshadow="2"
     inkscape:pageopacity="0.0"
     inkscape:pagecheckerboard="0"
     inkscape:deskcolor="#d1d1d1" />
  <rect
     style="fill:#ffffff;stroke:none;stroke-opacity:1"
     id="rect20"
     width="16.933332"
     height="16.933332"
     x="0"
     y="0" />
  <g
     transform="matrix(0.08407777,0,0,0.08407777,8.030651,7.6213748)"
     id="g20">
    <path
       d="m 18.770566,-73.163873 c -4.92125,0.102526 -8.9881156,0.239229 -9.0906416,0.341755 -0.102527,0.102527 -0.273403,0.683513 -0.410105,1.264497 l -0.239227,1.127795 h 1.8796436 c 2.528975,0 3.96434,0.341756 4.306094,0.991093 0.170877,0.30758 0.205052,4.852932 0.102526,10.150149 l -0.239227,9.569166 -9.3982214,-11.55135 -9.3982206,-11.55135 h -7.41605 -7.450226 v 1.161971 c 0,1.127794 0,1.161969 1.879644,1.401199 1.196137,0.136702 2.221397,0.512634 2.768203,0.956917 l 0.854383,0.751862 -0.341753,16.882742 c -0.273403,14.456275 -0.410104,16.951094 -0.854383,17.395376 -0.307578,0.30758 -1.367014,0.580986 -2.597326,0.683512 l -2.050521,0.136703 v 1.332847 1.332849 h 7.279348 c 4.0326913,0 15.4130821,-0.102528 25.289758,-0.23923 l 18.010408,-0.205054 v -0.820213 c 0,-0.683513 -0.170877,-0.786039 -1.401189,-0.786039 -0.786033,0 -1.913819,-0.239229 -2.528976,-0.546809 -2.255573,-1.059444 -2.221397,-0.683513 -1.879644,-15.037261 0.170876,-7.142699 0.341753,-14.763855 0.341753,-16.985268 v -4.032719 l 1.46954,-0.649337 c 0.854384,-0.410108 2.187223,-0.683513 3.417535,-0.683513 h 1.947995 v -1.367022 -1.367024 l -2.631502,0.06834 c -1.46954,0.03418 -6.698368,0.170879 -11.619618,0.273406 z m 3.315009,17.634605 v 14.182869 l -1.196137,-0.92274 -1.196138,-0.888566 v -12.40574 -12.439915 l 1.127787,-0.854389 c 0.580981,-0.478459 1.127787,-0.888565 1.196137,-0.888565 0.03418,0 0.06836,6.390835 0.06836,14.217046 z m -29.1515721,8.338843 -0.068351,12.132335 -1.0936111,0.102528 -1.1277865,0.102526 v -13.601885 l 0.034176,-13.601886 1.1619618,1.367024 1.1961372,1.367024 z m 7.62110245,-1.879656 c 0,1.298672 -0.1025261,5.057987 -0.2392274,8.270491 l -0.2050521,5.912378 H -1.939695 -3.9902158 l 0.205052,-3.349207 c 0.1367015,-1.811307 0.2392275,-6.561714 0.2392275,-10.491907 l 0.034176,-7.176875 2.0163453,2.221414 2.01634554,2.221414 z m 4.75037335,4.10107 1.4011893,2.221413 v 3.690964 3.725139 l -1.5378907,0.341757 -1.5378906,0.341756 v -6.254133 c 0,-3.451736 0.068351,-6.28831 0.1367014,-6.28831 0.068351,0 0.786033,0.991093 1.5378906,2.221414 z m 6.6300173,7.484455 c 0.888559,1.367023 1.606242,2.699871 1.606242,2.904925 0,0.410107 -1.401189,0.478458 -2.631502,0.170878 -0.717683,-0.205055 -0.786033,-0.410107 -0.786033,-2.904926 0,-1.503727 0.03418,-2.699872 0.102526,-2.699872 0.06836,0 0.854384,1.127795 1.708767,2.528995 z"
       style="stroke-width:0.0341755"
       id="path1" />
    <path
       d="m -18.924842,-25.83068 v 3.246681 h 7.518575 7.5185772 v 7.792035 c 0,4.306124 -0.102526,8.98818 -0.2050521,10.4235548 l -0.2392274,2.6315205 h -3.1783074 -3.2124823 v 5.8098505 5.8098504 h 5.8098087 5.80980915 v 6.4933618 6.493362 L 2.673977,25.261828 c 0.9910851,1.332847 1.8796441,2.392292 1.9821701,2.392292 0.102526,0 1.2303126,-0.991093 2.5289761,-2.153063 l 2.3922742,-2.153063 0.136702,-6.73259 0.170876,-6.7325918 H 16.17324 22.427329 L 22.358969,4.1413129 22.256443,-1.5660107 18.59968,-1.6685375 14.908743,-1.7710643 v -6.2541334 c 0,-3.4175593 -0.102526,-8.1337893 -0.239227,-10.3893803 l -0.205053,-4.169421 h 8.236259 8.270435 v -2.494818 c 0,-1.332848 0.102525,-2.802399 0.205051,-3.246681 l 0.205053,-0.751863 H 6.2282132 -18.924842 Z M 5.920635,0.17694445 C 5.8181089,0.27947118 5.5105308,0.31364673 5.2713034,0.2111197 4.9979006,0.10859297 5.1004266,0.00606614 5.4763555,0.00606614 5.8522843,-0.0281091 6.0573364,0.07441763 5.920635,0.17694445 Z M 18.531339,0.6895783 C 19.146495,1.4072657 19.146495,1.4072657 18.326286,1.0313342 17.608605,0.72375384 16.959273,0.82628067 14.396121,1.8173728 L 11.354516,2.9793428 9.2014694,1.9198996 C 8.0395074,1.3389145 7.1167718,0.79210503 7.1851232,0.72375384 7.2534732,0.65540236 8.2103834,1.0655098 9.3381704,1.6123192 l 1.9821696,1.0252677 3.246658,-1.332848 c 1.777119,-0.71768743 3.246658,-1.29867246 3.280834,-1.29867246 0,-0.03417524 0.307578,0.27340474 0.683507,0.68351186 z M -3.0333061,0.99715859 c 0.3417535,0.37593161 0.5468056,0.68351181 0.4442795,0.68351181 -0.102526,0 -0.4442795,-0.3075802 -0.786033,-0.68351181 C -3.716813,0.62122711 -3.9218652,0.31364673 -3.819339,0.31364673 c 0.102526,0 0.4442794,0.30758038 0.7860329,0.68351186 z M 4.3143937,0.65540266 C 4.0409909,0.82628067 3.6650621,0.99715859 3.46001,0.99715859 c -0.1708768,0 -0.102526,-0.17087792 0.1708767,-0.34175593 0.2734027,-0.17087792 0.683507,-0.34175593 0.8543837,-0.34175593 0.2050521,0 0.102526,0.17087801 -0.1708767,0.34175593 z M 1.9221193,1.6806704 c -0.2734027,0.170878 -0.6493316,0.3417559 -0.8543837,0.3417559 -0.17087675,0 -0.10252605,-0.1708779 0.1708767,-0.3417559 0.2734028,-0.170878 0.683507,-0.3417559 0.8543837,-0.3417559 0.2050521,0 0.102526,0.1708779 -0.1708767,0.3417559 z m -6.4933161,0.4784583 c 0,0.068351 -0.2392275,0.2392291 -0.5468056,0.3417559 -0.2734027,0.1025268 -0.4101041,0.068352 -0.3075781,-0.1367024 0.2050521,-0.3417559 0.8543837,-0.4784582 0.8543837,-0.2050535 z m 4.78454865,0.2050535 c -0.2734028,0.170878 -0.6493316,0.3417559 -0.8543837,0.3417559 -0.1708767,0 -0.102526,-0.1708779 0.1708768,-0.3417559 0.2734027,-0.1708779 0.6835069,-0.3417559 0.8543837,-0.3417559 0.205052,0 0.102526,0.170878 -0.1708768,0.3417559 z M 8.5521374,3.6286791 11.046938,4.8590003 14.225244,3.5945035 c 3.007431,-1.1961457 3.212484,-1.2303213 3.725113,-0.6835118 0.410105,0.4784583 0.444281,0.5126339 0.03418,0.2392291 -0.375931,-0.2734047 -1.298665,-0.068352 -3.725115,0.8543898 L 11.081113,5.2007563 8.2787344,3.7995571 C 6.7750187,3.047694 5.6130568,2.3983578 5.7497583,2.3983578 5.8864597,2.3641822 7.1509478,2.9109917 8.5521374,3.6286791 Z m -11.24369,0.1025267 c 0.3417534,0.3759316 0.5468055,0.6835119 0.4442794,0.6835119 -0.102526,0 -0.4442794,-0.3075803 -0.7860329,-0.6835119 C -3.3750596,3.3552743 -3.5801117,3.047694 -3.4775856,3.047694 c 0.102526,0 0.4442795,0.3075803 0.786033,0.6835118 z m 3.9301649,0.341756 c -0.27340275,0.170878 -0.64933165,0.3417559 -0.85438365,0.3417559 -0.1708768,0 -0.1025261,-0.1708779 0.1708767,-0.3417559 0.2734028,-0.170878 0.68350695,-0.341756 0.85438375,-0.341756 0.2050521,0 0.102526,0.170878 -0.1708768,0.341756 z m -1.70876735,0.6835118 c -0.2734028,0.1708779 -0.64933155,0.3417558 -0.85438365,0.3417558 -0.1708768,0 -0.102526,-0.1708779 0.1708767,-0.3417558 0.27340265,-0.170878 0.68350695,-0.3417559 0.85438365,-0.3417559 0.2050521,0 0.102526,0.1708779 -0.1708767,0.3417559 z M 4.3143937,5.0982294 C 4.0409909,5.2691075 3.6650621,5.4399854 3.46001,5.4399854 c -0.1708768,0 -0.102526,-0.1708779 0.1708767,-0.341756 0.2734027,-0.1708779 0.683507,-0.3417558 0.8543837,-0.3417558 0.2050521,0 0.102526,0.1708779 -0.1708767,0.3417558 z M 18.360462,5.3374586 C 18.804741,5.8500925 18.770566,5.8500925 18.121234,5.5083367 17.540253,5.2007563 16.822571,5.3374586 14.25942,6.3285508 L 11.115288,7.4905208 9.8508014,6.8411846 C 9.1672934,6.4652532 8.7230144,6.1576729 8.8597154,6.1234972 c 0.136702,0 0.717682,0.2392292 1.2303126,0.5126339 0.922734,0.4442826 1.161962,0.4101071 3.827638,-0.6835119 C 17.1985,4.6197712 17.71113,4.5514201 18.360462,5.3374586 Z M -3.1700075,5.6792146 C -2.725728,6.226024 -2.7599034,6.2601996 -3.2725336,5.8159169 -3.614287,5.5766877 -3.8876898,5.3032831 -3.8876898,5.2349318 c 0,-0.2734046 0.2734028,-0.1025267 0.7176823,0.4442828 z M 2.6056263,5.7817413 C 2.3322235,5.9526192 1.9562947,6.1234972 1.7512426,6.1234972 c -0.1708768,0 -0.102526,-0.170878 0.1708767,-0.3417559 0.2734027,-0.1708779 0.683507,-0.3417559 0.8543837,-0.3417559 0.2050521,0 0.102526,0.170878 -0.1708767,0.3417559 z M 1.204437,6.2943751 C 1.101911,6.3627264 0.48675465,6.6703067 -0.19675235,6.977887 -1.1194866,7.3538185 -1.5295908,7.3879941 -1.7004676,7.0804137 -1.837169,6.8753603 -1.8029936,6.7728334 -1.6321165,6.8753603 c 0.1708768,0.1367022 0.78603295,0 1.33283855,-0.2392292 C 0.76015745,6.1576729 1.4778398,5.9867949 1.204437,6.2943751 Z"
       style="stroke-width:0.0341755"
       id="path2" />
    <path
       d="m -43.394392,2.4325334 c -0.51263,0.9910922 -1.093611,2.4948181 -1.332838,3.3492079 -0.375929,1.4353749 -0.478455,1.5379016 -1.845469,1.7771307 -1.264488,0.2050535 -1.777118,0.1025268 -3.725113,-0.8885653 -1.264488,-0.6493362 -2.870729,-1.4011992 -3.554236,-1.674604 l -1.264488,-0.5126338 -0.649332,1.9480086 -0.683507,1.9821843 0.820209,1.0252678 0.786033,1.0252674 -1.161962,0.54681 c -1.093611,0.512633 -1.298663,0.512633 -5.468055,-0.615161 -2.3581,-0.6493361 -4.476971,-1.1961456 -4.716199,-1.1961456 -0.239227,0 -0.95691,0.5126338 -1.572066,1.1619706 l -1.127787,1.161969 1.606242,0.717688 c 0.888559,0.410107 1.674592,0.717688 1.708767,0.717688 0.06835,0 0.854385,0.30758 1.742943,0.683511 1.435365,0.615161 1.537891,0.751864 1.02526,1.127795 -0.512629,0.375931 -1.469539,0.307581 -5.43388,-0.30758 -2.665677,-0.444284 -5.297179,-0.854391 -5.809808,-0.956917 -0.88856,-0.170878 -0.95691,-0.102527 -0.854385,0.717688 0.102527,0.85439 0.410105,1.025267 3.861815,2.153061 5.160477,1.674604 4.852899,1.537902 4.374444,2.050536 -0.341753,0.375932 -1.469539,0.307581 -5.980685,-0.273405 -3.075782,-0.410107 -5.946511,-0.751863 -6.39079,-0.751863 h -0.786033 l 0.649331,1.09362 c 0.580981,1.025267 0.854384,1.127793 4.887075,2.016359 l 4.271919,0.922741 -5.980687,0.06835 c -3.280833,0.03418 -6.322439,0.170878 -6.766718,0.273404 -0.751858,0.23923 -0.717683,0.30758 0.751857,1.503727 l 1.537891,1.298672 h 5.809809 c 4.955426,0 5.843984,0.06836 5.843984,0.512634 0,0.444283 -0.854383,0.512634 -5.741458,0.512634 -3.178308,0 -7.41605,0.102527 -9.398221,0.239229 l -3.656762,0.205054 1.298664,1.127795 1.264488,1.127794 6.664192,0.06836 6.664193,0.03418 -5.468056,0.615162 c -3.007431,0.341755 -6.288264,0.649335 -7.279349,0.649335 -1.606241,0.03418 -1.777118,0.102527 -1.46954,0.615162 1.161962,1.948008 0.478455,1.879657 10.150079,1.332847 6.219913,-0.341756 9.056467,-0.375932 9.534922,-0.102527 0.649331,0.341757 0.649331,0.341757 0,0.580986 -0.375929,0.136702 -3.998516,0.444282 -8.031207,0.683511 -4.032691,0.239229 -8.099558,0.546809 -9.056467,0.649336 l -1.708767,0.205054 1.401188,1.059443 1.401189,1.025268 9.193169,-0.888566 9.193169,-0.888565 0.888559,0.683513 0.888559,0.717687 -0.95691,0.205053 c -0.51263,0.102527 -5.399704,0.580985 -10.86776,1.025267 -5.468056,0.444283 -9.945026,0.888566 -9.945026,0.991092 0,0.136703 0.786033,0.888566 1.708767,1.674604 l 1.742943,1.469552 10.389306,-1.913834 c 9.39822,-1.708779 10.526006,-1.845482 11.687968,-1.435375 0.751858,0.23923 1.059436,0.512635 0.751858,0.61516 -0.273403,0.06835 -5.741458,1.298674 -12.166424,2.665697 -6.424966,1.401199 -11.619618,2.63152 -11.551268,2.734047 0.06835,0.136703 1.708768,0.512634 3.656763,0.820215 l 3.52006,0.61516 11.209515,-2.973277 c 8.95394,-2.358116 11.517092,-2.904925 12.576528,-2.734047 0.717682,0.136702 1.332838,0.341757 1.332838,0.444283 0,0.136703 -6.698367,2.153062 -14.866276,4.477002 -8.202083,2.32394 -14.832101,4.27195 -14.797926,4.306124 0.06835,0.06835 2.255573,0.580986 4.921251,1.127795 l 4.818724,1.059444 12.3373,-4.374476 12.371476,-4.408651 1.742942,0.410107 1.708768,0.375932 -14.968802,5.809849 -14.968803,5.809851 5.673108,0.273404 5.638932,0.273406 13.123334,-5.50227 c 11.858845,-4.955461 13.260035,-5.468095 14.387821,-5.228865 1.230313,0.273404 0.820209,0.512633 -13.225859,7.621156 -7.962856,4.03272 -14.490347,7.450279 -14.490347,7.552806 0,0.102525 3.246658,0.30758 7.210998,0.410107 l 7.210998,0.239229 11.141164,-7.245226 c 6.117387,-3.964368 11.448741,-7.279401 11.82467,-7.347751 0.410104,-0.102528 1.059436,0 1.503715,0.136702 0.717683,0.273405 -0.239227,1.230321 -10.526007,10.321028 -6.219913,5.50227 -11.277864,10.0818 -11.209514,10.150151 0.136701,0.102526 16.028238,-2.836575 16.164939,-3.007452 0.03418,-0.06835 3.246658,-3.759315 7.142648,-8.236318 l 7.108472,-8.099614 h 1.640417 1.6745921 l -2.1530471,4.511178 c -1.196137,2.494818 -3.725112,7.757859 -5.638932,11.688051 -1.913819,3.930194 -3.383359,7.21105 -3.315008,7.279401 0.136701,0.136703 13.3967354,-2.392291 14.9346261,-2.836574 0.3417535,-0.102527 1.4695399,-2.87075 3.3491841,-8.441371 1.57206595,-4.545354 3.0074306,-8.714776 3.2124826,-9.227409 0.3759289,-0.85439 0.6151563,0.273405 2.255573,9.569166 0.9910851,5.775674 1.8454688,10.560257 1.8796441,10.560257 0,0.03418 3.2124835,-0.54681 7.1426481,-1.298673 4.169393,-0.820213 7.074297,-1.537901 7.074297,-1.77713 0,-0.205054 -1.537891,-4.442828 -3.417535,-9.432464 -1.845469,-4.95546 -3.349184,-9.05653 -3.315009,-9.124882 0.06836,-0.03418 4.203568,4.442827 9.227344,9.979272 l 9.124818,10.013448 4.340269,-1.845482 c 2.42645,-1.025267 4.750374,-2.016359 5.194653,-2.221413 0.820209,-0.341756 0.649332,-0.54681 -4.955425,-6.219957 -3.178308,-3.246681 -7.005946,-7.176874 -8.509662,-8.748952 l -2.734028,-2.836574 5.80981,3.896017 c 3.212482,2.153063 9.39822,6.356661 13.80684,9.29576 l 7.997031,5.399745 4.203568,-2.87075 c 2.289749,-1.537901 4.066866,-2.9391 3.964341,-3.041627 -0.136702,-0.136703 -3.998516,-2.358116 -8.612188,-4.921286 -12.576528,-7.074346 -12.26895,-7.005996 4.955425,1.16197 l 11.585443,5.50227 2.870729,-2.836573 2.836554,-2.836574 -9.739974,-4.442827 c -5.331354,-2.426467 -9.671623,-4.442827 -9.637448,-4.477004 0.03418,-0.03418 24.230322,6.869295 26.554246,7.586983 0.410103,0.136702 0.854383,-0.273406 1.503715,-1.4012 0.51263,-0.85439 0.786033,-1.708779 0.649331,-1.845482 -0.170877,-0.136703 -3.725113,-1.4012 -7.92868,-2.768222 -4.169393,-1.4012 -7.484402,-2.56317 -7.313525,-2.631521 0.273403,-0.06835 20.300156,4.135247 21.735521,4.57953 0.580981,0.205052 0.615156,0.06835 0.375929,-1.742956 -0.136701,-1.093619 -0.307578,-2.153062 -0.375929,-2.358116 -0.06835,-0.205054 -3.588411,-1.298673 -7.791979,-2.426467 -4.203568,-1.127794 -7.621103,-2.084711 -7.586927,-2.118887 0.03418,-0.03418 4.716198,0.54681 10.423481,1.298673 5.673108,0.786039 10.389306,1.332848 10.457657,1.264497 C 95.8018,43.238193 95.69927,42.520515 95.494222,41.7003 95.254995,40.743383 94.879065,40.162399 94.40061,39.991521 93.990507,39.854819 90.367919,39.205482 86.335228,38.556146 82.302537,37.940985 79.260932,37.36 79.56851,37.29165 c 0.307578,-0.06835 4.579496,0.205052 9.500747,0.61516 4.92125,0.410107 9.022285,0.649336 9.124805,0.546809 0.27341,-0.273404 -0.23922,-2.187238 -0.6835,-2.528994 -0.239227,-0.170878 -5.604752,-0.683511 -11.927191,-1.093619 -6.356615,-0.444282 -11.551268,-0.888565 -11.551268,-0.991091 0,-0.102528 0.136702,-0.410108 0.307578,-0.683513 0.273404,-0.444282 1.742943,-0.444282 11.038638,-0.102526 5.87816,0.239228 11.448742,0.410106 12.405643,0.410106 h 1.70877 l -1.12779,-1.127794 -1.093607,-1.093619 -6.937591,-0.717688 -6.90342,-0.717686 7.689453,-0.06836 7.689445,-0.06835 -1.537887,-1.332848 -1.537885,-1.367024 -8.099558,0.205055 -8.133733,0.239228 v -1.093618 -1.127795 l 8.953942,0.273404 8.988114,0.239229 -1.879642,-1.777129 -1.879644,-1.742956 -7.005947,0.205053 c -6.117387,0.205054 -7.074296,0.136704 -7.484401,-0.307581 -0.546805,-0.68351 -0.06835,-0.751862 7.997032,-1.298671 5.604757,-0.341756 6.732543,-0.478458 6.288263,-0.751863 -0.06834,-0.03418 -0.95691,-0.820214 -1.913819,-1.742956 l -1.777118,-1.708781 -6.014861,0.991091 c -5.604757,0.956917 -6.014862,0.956917 -6.561667,0.410108 -0.307578,-0.30758 -0.478455,-0.649336 -0.410104,-0.751862 0.102526,-0.102528 2.187222,-0.54681 4.613672,-1.059444 2.426449,-0.478458 4.647847,-0.922741 4.921249,-1.025268 0.341754,-0.136702 -0.205051,-0.546809 -1.469539,-1.196145 l -1.982171,-1.025269 -4.955425,0.717688 c -4.613672,0.683511 -6.288264,0.683511 -6.288264,0.03418 0,-0.136704 0.649332,-0.444285 1.46954,-0.683513 5.297179,-1.572082 7.108473,-2.221419 6.698368,-2.426472 C 79.534334,10.429621 77.552165,9.8828122 75.399118,9.404354 L 71.434777,8.481613 68.803275,9.7119342 C 65.727494,11.078958 65.590793,11.113133 64.497182,10.258744 L 63.676973,9.6435831 66.137598,7.6613988 C 67.470437,6.5677799 68.529873,5.6108634 68.427346,5.5425121 68.32482,5.4399854 66.34265,5.0982294 63.984551,4.7906492 c -4.101042,-0.5809851 -4.47697,-0.5468094 -7.655278,0 -1.811293,0.3417559 -3.554236,0.6151606 -3.827639,0.6151606 -0.273402,0.034175 0.341754,-0.7176875 1.367014,-1.6404283 1.025261,-0.922741 1.811294,-1.7429552 1.708767,-1.8454819 C 55.47489,1.8173728 53.116791,1.5097924 50.348588,1.2022121 46.14502,0.72375384 45.18811,0.6895783 44.709655,1.0655098 c -1.777118,1.3670236 -4.169392,3.5200858 -4.169392,3.7251394 0,0.1025267 0.956909,0.4101071 2.153046,0.6151606 11.31204,2.1530622 25.973265,7.7578592 29.937605,11.4829982 2.221398,2.050536 3.246659,4.442827 3.007431,6.869294 -0.239227,2.289765 -0.95691,3.622612 -3.109957,5.741499 -2.255572,2.255589 -4.92125,3.656788 -10.526007,5.50227 -7.894505,2.563169 -13.362561,3.520086 -26.417544,4.57953 -30.1084815,2.494818 -44.9064071,2.699871 -61.139698,0.854389 -10.628532,-1.161969 -21.701345,-4.237772 -29.869253,-8.236318 -3.178308,-1.537901 -4.374445,-2.358114 -6.39079,-4.3403 -3.622587,-3.520085 -4.066867,-5.844025 -1.777119,-9.29576 1.40119,-2.118886 3.588412,-3.79349 7.689454,-5.912377 5.604757,-2.8707496 12.098073,-5.0579874 18.317986,-6.1516063 2.016346,-0.3759315 3.075782,-0.8885653 2.768203,-1.4011993 -0.102525,-0.1708779 -1.53789,-1.0252676 -3.178306,-1.913833 -1.640418,-0.8885654 -3.315009,-1.8454819 -3.725113,-2.0847111 -0.717683,-0.47845819 -0.786033,-0.410107 -1.674593,1.3328481 z"
       style="stroke-width:0.0341755"
       id="path3" />
    <path
       d="m 22.939958,16.239472 c -8.065382,5.7415 -14.8321006,10.560258 -15.0371526,10.765311 -0.170876,0.205053 0.512631,0 1.537891,-0.478458 9.3982206,-4.169422 22.8974826,-10.252677 26.6567716,-12.029809 6.527491,-3.075802 8.37296,-3.451733 12.132248,-2.426466 3.38336,0.888566 5.502231,2.392292 6.732543,4.784582 1.230313,2.426468 0.239228,3.622614 -4.852899,5.7415 C 39.549177,27.03896 27.587805,28.952791 7.2192982,29.567953 -11.645494,30.114762 -26.51177,27.790822 -37.960512,22.527782 c -3.315008,-1.537902 -4.54532,-2.631521 -4.54532,-4.066896 0,-2.323941 3.349183,-4.477002 10.93611,-7.040172 l 4.237744,-1.435375 -2.187223,-1.1961457 c -1.230312,-0.6835119 -2.802378,-1.503726 -3.485885,-1.8454819 l -1.264487,-0.580985 -7.72363,1.9821842 c -6.800894,1.7429554 -8.099557,2.2214134 -11.038637,3.8276664 -6.39079,3.520086 -9.295695,6.493361 -9.569097,9.91092 -0.136701,1.469552 0,2.050536 0.751857,3.349209 2.597326,4.442827 11.619618,8.236318 27.442804,11.585525 14.661225,3.109979 32.1590028,3.896017 56.833605,2.56317 24.777126,-1.298673 41.078767,-5.023812 47.503733,-10.799487 2.392274,-2.153062 3.178307,-3.964368 3.00743,-7.005997 C 72.801791,19.349451 72.801791,19.349451 71.127199,17.879901 65.83002,13.300371 56.773553,9.6777586 44.265375,7.1487649 41.360471,6.5677799 38.694794,6.0551459 38.318865,5.9867949 37.84041,5.884268 33.158388,8.9942468 22.939958,16.239472 Z"
       style="stroke-width:0.0341755"
       id="path4" />
    <path
       d="m -89.90704,65.076392 -2.460625,4.271948 0.854383,0.54681 c 0.44428,0.30758 0.888559,0.512633 0.95691,0.444282 0.06835,-0.06835 0.683508,-1.196145 1.435365,-2.528994 1.196137,-2.153062 1.332838,-2.289764 1.537891,-1.537901 0.136701,0.478458 0.239227,2.050536 0.273402,3.48591 0.03418,2.255589 0.136702,2.699872 0.683508,3.007452 0.375928,0.170878 0.820207,0.341756 1.02526,0.341756 0.170876,0 1.435364,-1.879657 2.734027,-4.203598 2.221398,-3.793491 2.392275,-4.203598 1.84547,-4.613704 -0.991086,-0.717688 -1.298664,-0.478458 -2.665678,1.948008 -0.854384,1.537901 -1.435364,2.255589 -1.606241,1.982184 -0.136702,-0.239228 -0.273403,-1.811305 -0.273403,-3.520086 0,-3.007452 -0.03418,-3.109978 -0.854384,-3.485909 -0.478455,-0.23923 -0.922734,-0.410107 -0.95691,-0.410107 -0.06834,0 -1.196137,1.913832 -2.528975,4.271949 z"
       style="stroke-width:0.0341755"
       id="path5" />
    <path
       d="m 94.981592,61.487955 c -0.580982,0.341756 -1.264488,0.956916 -1.435365,1.332847 -0.615156,1.093619 -0.444279,2.699872 0.341754,3.485911 0.649331,0.649336 0.991084,0.717687 2.665676,0.512633 3.793453,-0.444283 3.622583,-0.444283 3.725113,0.512634 0.1367,1.230322 -1.264488,1.982184 -2.734028,1.401199 -1.947994,-0.717687 -3.144132,0.683513 -1.469539,1.777132 2.358099,1.537901 6.664187,-0.717688 6.664187,-3.520087 0,-0.375931 -0.4101,-1.16197 -0.92273,-1.742955 -0.88856,-1.059443 -0.99109,-1.093619 -2.802378,-0.888565 -1.05944,0.102527 -2.323922,0.30758 -2.836553,0.410107 -0.786033,0.170878 -0.95691,0.102527 -0.95691,-0.478458 0,-1.230321 1.298664,-1.777131 2.904903,-1.264497 0.37592,0.102526 0.99108,0 1.36701,-0.307581 0.649328,-0.478458 0.649328,-0.512633 0.0342,-1.196144 -0.85439,-0.922742 -3.041606,-0.956917 -4.54532,-0.03418 z"
       style="stroke-width:0.0341755"
       id="path6" />
    <path
       d="m 85.139092,66.101659 c -1.674592,0.85439 -2.563152,2.187238 -2.563152,3.896017 0,1.982184 1.161962,4.374476 2.528976,5.194691 1.947995,1.196145 4.92125,0.649335 6.151563,-1.127795 0.717682,-0.991093 0.751858,-3.349209 0.06835,-3.349209 -0.95691,0 -1.572067,0.410108 -1.572067,1.093619 0,1.64043 -1.674591,2.734048 -3.075781,1.982185 -0.854383,-0.444283 -2.050521,-2.768224 -2.050521,-3.930193 0,-1.640429 2.255574,-2.904925 3.315009,-1.845482 0.307578,0.307581 0.649332,0.273405 1.332838,-0.205054 l 0.95691,-0.61516 -0.95691,-0.786038 c -1.093615,-0.956917 -2.631505,-1.059444 -4.13522,-0.307581 z"
       style="stroke-width:0.0341755"
       id="path7" />
    <path
       d="m -78.731701,70.852067 c -1.777119,2.153061 -3.280834,4.066894 -3.349185,4.237772 -0.03418,0.170878 0.307578,0.444282 0.820209,0.54681 0.683507,0.205053 1.127787,0.03418 1.811293,-0.580986 0.88856,-0.854389 0.88856,-0.854389 2.597327,-0.239229 1.572066,0.512635 1.708767,0.649337 1.811293,1.811307 0.102526,0.991092 0.273403,1.264497 1.127787,1.572077 l 0.991084,0.341756 v -1.606253 c 0,-0.888565 -0.102525,-3.315031 -0.239227,-5.433919 l -0.205052,-3.827665 -1.02526,-0.375932 c -0.546806,-0.170878 -1.059436,-0.341756 -1.059436,-0.341756 -0.03418,0 -1.503716,1.742955 -3.280833,3.896018 z m 3.417535,0.751862 c 0,1.537902 0,1.572078 -0.922735,1.332848 -0.546806,-0.136702 -1.025261,-0.273404 -1.093611,-0.341756 -0.102527,-0.136702 1.674592,-2.460642 1.947994,-2.528992 0.03418,-0.03418 0.06835,0.68351 0.06835,1.5379 z"
       style="stroke-width:0.0341755"
       id="path8" />
    <path
       d="m 77.449638,69.758447 c -0.44428,0.170878 -0.854383,0.341756 -0.922734,0.375932 -0.03418,0.06835 0.615156,2.187238 1.435364,4.682055 1.40119,4.237774 1.572066,4.613705 2.289748,4.511178 0.410105,-0.03418 0.88856,-0.205053 1.025261,-0.341755 0.239227,-0.239229 -2.323923,-8.885654 -2.768203,-9.329936 -0.102526,-0.136703 -0.580981,-0.102527 -1.059436,0.102526 z"
       style="stroke-width:0.0341755"
       id="path9" />
    <path
       d="m -66.257699,70.783715 c -2.153048,5.604797 -3.178308,8.6806 -2.973255,8.851479 0.136701,0.136702 0.58098,0.341755 0.956909,0.444282 0.649331,0.205053 0.820208,-0.06834 1.674592,-2.528994 0.546805,-1.503726 1.02526,-2.665695 1.127786,-2.563169 0.06836,0.06835 0.44428,1.572077 0.786033,3.315032 0.375929,1.742954 0.786033,3.280856 0.922735,3.417559 0.136702,0.136702 0.615156,0.307581 1.059436,0.341756 0.717682,0.102528 0.922734,-0.273405 2.460625,-4.477003 0.95691,-2.494818 1.674592,-4.613704 1.606241,-4.64788 -0.06835,-0.06835 -0.51263,-0.205054 -0.991085,-0.341756 -0.854384,-0.205053 -0.922734,-0.102526 -1.879644,2.528994 -0.546806,1.503726 -1.059436,2.56317 -1.196137,2.32394 -0.102527,-0.205053 -0.478455,-1.811306 -0.820209,-3.554261 -0.478454,-2.631521 -0.683507,-3.144155 -1.332839,-3.315033 -1.059435,-0.273405 -1.230312,-0.239229 -1.401188,0.205054 z"
       style="stroke-width:0.0341755"
       id="path10" />
    <path
       d="m 70.614568,71.877334 -1.196137,0.444283 0.136702,3.144154 c 0.06835,1.70878 0.03418,3.109979 -0.03418,3.109979 -0.102526,0 -0.888559,-1.16197 -1.777117,-2.56317 -1.40119,-2.221413 -1.742943,-2.563168 -2.3581,-2.358116 -1.811293,0.54681 -2.255572,0.820215 -2.153046,1.230323 2.460625,7.826209 2.973255,9.090706 3.656761,8.919828 1.093612,-0.30758 1.127787,-0.922741 0.170877,-3.759316 -0.478455,-1.435374 -0.854383,-2.665694 -0.786033,-2.699871 0.03418,-0.06836 0.820209,1.127794 1.742943,2.631521 0.922735,1.46955 1.742943,2.699871 1.879644,2.699871 0.102526,0 0.580981,-0.102527 1.02526,-0.239229 0.820209,-0.205053 0.820209,-0.239229 0.615157,-3.656789 l -0.170876,-3.451733 1.02526,3.109979 c 0.991085,3.075803 1.02526,3.144153 1.91382,2.870748 0.64933,-0.170877 0.888558,-0.410105 0.820207,-0.888564 -0.205051,-1.264497 -2.870728,-9.022356 -3.075781,-8.988181 -0.136701,0 -0.786033,0.205054 -1.435365,0.444283 z"
       style="stroke-width:0.0341755"
       id="path11" />
    <path
       d="m -53.612821,75.636649 c -2.699853,1.230322 -4.101041,5.297217 -2.665677,7.757859 0.717683,1.196146 2.93908,2.358116 4.579497,2.358116 3.485885,0 5.980685,-4.955461 4.066867,-8.099615 -1.127787,-1.913833 -4.066867,-2.904926 -5.980687,-2.01636 z m 3.793464,2.289764 c 1.401189,1.161971 0.375928,5.19469 -1.435365,5.638973 -2.323923,0.580985 -3.895989,-1.196146 -3.178307,-3.622612 0.717682,-2.426468 2.973255,-3.383384 4.613672,-2.016361 z"
       style="stroke-width:0.0341755"
       id="path12" />
    <path
       d="m 54.312927,77.277077 c -0.717682,0.341756 -0.751857,0.615161 -0.854383,5.536446 -0.06835,2.836573 -0.06835,5.228865 -0.03418,5.297216 0.03418,0.03418 0.478455,-0.03418 1.02526,-0.205053 0.786033,-0.273405 0.991085,-0.54681 1.059436,-1.572077 0.102526,-1.127795 0.205052,-1.264497 1.845469,-1.811306 l 1.777118,-0.580986 0.751857,0.922741 c 0.751859,0.854391 0.854384,0.888566 1.879644,0.444283 l 1.093611,-0.444283 -3.485884,-3.998544 c -1.91382,-2.187237 -3.690938,-3.998543 -3.89599,-3.964368 -0.239228,0 -0.751858,0.170877 -1.161963,0.375931 z m 2.734029,5.297216 c -1.093611,0.820215 -1.469541,0.54681 -1.469541,-1.196145 l 0.03418,-1.606252 1.02526,1.196145 c 0.922734,1.093619 0.95691,1.230321 0.410105,1.606252 z"
       style="stroke-width:0.0341755"
       id="path13" />
    <path
       d="m 47.067754,79.19091 c -0.717682,0.102527 -0.786033,0.239229 -0.580981,1.537902 0.136702,0.786039 0.307578,2.118886 0.410104,2.973276 l 0.205053,1.537902 -0.991086,-1.025267 c -0.51263,-0.580986 -1.572066,-1.777132 -2.358099,-2.665697 -1.196137,-1.435375 -1.503715,-1.606252 -2.289748,-1.435375 -1.127787,0.307581 -1.127787,0.478458 -0.239227,5.638973 0.375928,2.153062 0.683506,4.03272 0.683506,4.169422 0,0.341756 1.093611,0.341756 1.606242,0 0.341754,-0.205054 0.341754,-0.85439 -0.03418,-2.973276 -0.273402,-1.503726 -0.444279,-2.768223 -0.375929,-2.836575 0.03418,-0.06834 1.059437,1.059444 2.255574,2.460643 1.708767,2.016359 2.392274,2.597345 3.109956,2.597345 0.512631,0 1.02526,-0.170878 1.127787,-0.341756 0.239227,-0.410108 -1.127787,-9.29576 -1.503716,-9.60334 -0.102526,-0.102528 -0.580981,-0.102528 -1.02526,-0.03418 z"
       style="stroke-width:0.0341755"
       id="path14" />
    <path
       d="m -36.422621,80.113651 c -0.170876,0.751863 -0.03418,0.85439 1.059436,1.059443 0.683507,0.136702 1.332839,0.273405 1.435364,0.341757 0.136702,0.06834 -0.136701,1.845481 -0.546805,3.964368 -0.820208,4.066895 -0.786033,4.374475 0.717682,4.374475 0.615156,0 0.751858,-0.341755 1.127787,-2.323939 0.239227,-1.264497 0.58098,-3.041628 0.786033,-3.930194 l 0.341754,-1.640428 1.503715,0.239229 c 1.435364,0.205054 1.503715,0.170878 1.503715,-0.683511 0,-0.61516 -0.205052,-0.922742 -0.751858,-1.025268 -2.4948,-0.546809 -6.219913,-1.230322 -6.595842,-1.230322 -0.239228,0 -0.51263,0.375933 -0.580981,0.85439 z"
       style="stroke-width:0.0341755"
       id="path15" />
    <path
       d="m 35.85824,80.899691 c -0.922735,0.102525 -1.161962,0.30758 -1.811293,1.982183 -0.410105,1.025268 -0.854385,1.845482 -0.991086,1.845482 -0.102525,0 -0.820208,-0.683511 -1.572066,-1.537901 -1.264488,-1.4012 -1.435364,-1.503726 -2.528975,-1.264497 l -1.161962,0.23923 2.255573,2.597344 c 2.118871,2.426466 2.255573,2.734046 2.4948,4.716232 l 0.239228,2.118886 1.059435,-0.239229 c 0.580981,-0.102527 1.093611,-0.23923 1.093611,-0.273405 0.03418,0 -0.06835,-0.922742 -0.239227,-1.982184 -0.307578,-1.879658 -0.239228,-2.118886 1.093612,-5.092163 0.751857,-1.70878 1.332838,-3.109978 1.264487,-3.144155 -0.03418,-0.03418 -0.580981,-0.03418 -1.196137,0.03418 z"
       style="stroke-width:0.0341755"
       id="path16" />
    <path
       d="m -25.759912,86.060204 c -0.444279,2.665696 -0.717683,4.887109 -0.615156,4.989636 0.205051,0.239229 5.638931,1.196146 6.698368,1.196146 0.580981,0 0.751858,-0.205053 0.751858,-0.820215 0,-0.786038 -0.205053,-0.854389 -2.563152,-1.264497 -2.255573,-0.341755 -2.563151,-0.478458 -2.563151,-1.127794 0,-1.503725 0.44428,-1.70878 2.802379,-1.332847 2.255572,0.375932 2.665677,0.239229 2.665677,-0.991093 0,-0.410107 -0.44428,-0.615161 -1.982171,-0.786038 -2.528975,-0.273406 -2.904904,-0.512634 -2.631501,-1.606253 l 0.239228,-0.85439 2.426449,0.444283 c 2.528976,0.478457 2.93908,0.375932 2.973255,-0.922742 0,-0.410107 -0.649332,-0.61516 -2.802378,-0.956915 -1.572066,-0.23923 -3.212483,-0.512634 -3.690938,-0.615161 l -0.888558,-0.170878 z"
       style="stroke-width:0.0341755"
       id="path17" />
    <path
       d="m -12.329001,83.155279 c -2.768203,1.264497 -3.622586,5.912377 -1.503715,8.407195 1.674592,2.01636 4.9896007,1.982184 6.6641928,-0.03418 1.1277865,-1.332847 1.1277865,-1.537901 -0.102526,-1.948008 -0.8885591,-0.30758 -1.0594358,-0.239229 -1.7087674,0.649337 -1.4695404,2.016359 -3.7934644,0.61516 -3.7934644,-2.25559 0,-2.802398 2.494801,-4.3403 3.9985165,-2.426466 0.5126302,0.61516 0.8885589,0.786038 1.5720659,0.649336 1.1619619,-0.23923 1.1619619,-0.854391 -0.034176,-2.187238 -1.1277865,-1.264497 -3.3491844,-1.640429 -5.0921274,-0.85439 z"
       style="stroke-width:0.0341755"
       id="path18" />
    <path
       d="m 18.428812,82.91605 c -1.708767,0.170878 -1.606241,-0.30758 -1.059435,5.707323 l 0.375929,4.408652 2.699852,-0.205054 c 1.947995,-0.170878 2.973255,-0.410107 3.690938,-0.922741 2.460625,-1.742956 2.016345,-7.313576 -0.683507,-8.714775 -0.95691,-0.478459 -1.91382,-0.54681 -5.023777,-0.273405 z m 4.374445,2.358116 c 0.239228,0.273405 0.478455,1.367023 0.580981,2.392291 0.205052,2.32394 -0.44428,3.212505 -2.323924,3.212505 h -1.264487 l -0.239228,-2.08471 c -0.410104,-4.066896 -0.410104,-4.066896 1.298663,-4.066896 0.922735,0 1.640417,0.205054 1.947995,0.54681 z"
       style="stroke-width:0.0341755"
       id="path19" />
    <path
       d="m -2.1789224,87.01712 c 0,2.050536 -0.102526,4.271949 -0.2050521,4.955461 l -0.2392274,1.298672 h 1.2644878 1.23031245 V 91.220718 89.170183 H 1.7512426 3.6308867 v 2.221413 2.221414 H 4.6561471 5.6814076 V 88.486671 83.360332 H 4.6561471 3.6308867 v 2.050536 c 0,2.255589 0.034176,2.255589 -2.4606251,1.845482 l -1.29866325,-0.23923 v -1.811306 c 0,-1.811306 0,-1.845482 -1.02526035,-1.845482 h -1.0252604 z"
       style="stroke-width:0.0341755"
       id="path20" />
  </g>
</svg>
