<?xml version="1.0" encoding="UTF-8"?>
<svg width="49.454pt" height="50pt" version="1.0" xmlns="http://www.w3.org/2000/svg" xmlns:xlink="http://www.w3.org/1999/xlink">
	<defs>
		<linearGradient id="b" x1="150.96" x2="112.03" y1="192.35" y2="137.27" gradientTransform="matrix(.33369 0 0 .33691 -8.8924 -6.9416)" gradientUnits="userSpaceOnUse">
			<stop stop-color="#ffd43b" offset="0"/>
			<stop stop-color="#ffe873" offset="1"/>
		</linearGradient>
		<linearGradient id="a" x1="26.649" x2="135.67" y1="20.604" y2="114.4" gradientTransform="matrix(.33369 0 0 .33691 -8.8924 -6.9416)" gradientUnits="userSpaceOnUse">
			<stop stop-color="#5a9fd4" offset="0"/>
			<stop stop-color="#306998" offset="1"/>
		</linearGradient>
	</defs>
	<path d="m32.577 5.4529e-4c-2.7189 0.012633-5.3154 0.24452-7.6001 0.64879-6.7303 1.189-7.9523 3.6778-7.9523 8.2674v6.0615h15.905v2.0205h-21.873c-4.6223 0-8.6697 2.7783-9.9357 8.0635-1.4603 6.0581-1.5251 9.8385 0 16.164 1.1306 4.7086 3.8305 8.0635 8.4528 8.0635h5.4684v-7.2664c0-5.2496 4.542-9.8801 9.9357-9.8801h15.886c4.4221 0 7.9523-3.641 7.9523-8.082v-15.145c0-4.3102-3.6362-7.5481-7.9523-8.2674-2.7322-0.4548-5.567-0.66142-8.286-0.64879zm-8.6011 4.8752c1.6428 0 2.9844 1.3635 2.9844 3.04-1e-6 1.6706-1.3416 3.0215-2.9844 3.0215-1.6487-1e-6 -2.9844-1.3509-2.9844-3.0215-1e-6 -1.6765 1.3357-3.04 2.9844-3.04z" fill="url(#a)" stroke-width=".59318"/>
	<path d="m50.798 16.999v7.0625c0 5.4755-4.6421 10.084-9.9357 10.084h-15.886c-4.3515 0-7.9523 3.7243-7.9523 8.082v15.145c0 4.3102 3.748 6.8455 7.9523 8.0821 5.0345 1.4803 9.8623 1.7479 15.886 0 4.004-1.1593 7.9523-3.4924 7.9523-8.0821v-6.0615h-15.886v-2.0205h23.838c4.6223 0 6.3448-3.2242 7.9523-8.0635 1.6605-4.982 1.5898-9.7731 0-16.164-1.1423-4.6015-3.3241-8.0635-7.9523-8.0635zm-8.9347 38.353c1.6487 2e-6 2.9844 1.3509 2.9844 3.0215-2e-6 1.6765-1.3357 3.04-2.9844 3.04-1.6428 0-2.9844-1.3635-2.9844-3.04 2e-6 -1.6706 1.3416-3.0215 2.9844-3.0215z" fill="url(#b)" stroke-width=".59318"/>
</svg>
